<?xml version="1.0" standalone="no"?>
<!DOCTYPE svg PUBLIC "-//W3C//DTD SVG 20010904//EN"
 "http://www.w3.org/TR/2001/REC-SVG-20010904/DTD/svg10.dtd">
<svg version="1.0" xmlns="http://www.w3.org/2000/svg"
 width="235.000000pt" height="366.000000pt" viewBox="0 0 235.000000 366.000000"
 preserveAspectRatio="xMidYMid meet">

<g transform="translate(0.000000,366.000000) scale(0.100000,-0.100000)"
fill="#000000" stroke="none">
<path d="M0 1830 l0 -1830 1175 0 1175 0 0 1830 0 1830 -1175 0 -1175 0 0
-1830z m1098 1685 c-2 -36 -7 -65 -13 -65 -14 -1 -24 102 -12 118 20 26 28 10
25 -53z m62 56 c0 -5 -6 -12 -12 -15 -10 -5 -10 -7 0 -12 7 -3 12 -24 12 -50
0 -40 -2 -44 -25 -44 -20 0 -25 5 -25 25 0 29 16 34 23 8 3 -11 5 -7 6 10 1
18 -4 27 -14 27 -16 0 -19 17 -9 44 6 17 44 23 44 7z m83 -3 c6 -17 -33 -118
-46 -118 -9 0 -6 24 9 78 5 16 2 22 -10 22 -16 0 -21 12 -9 23 11 12 51 8 56
-5z m55 -11 c2 -12 -3 -17 -17 -17 -12 0 -21 6 -21 13 0 31 32 34 38 4z m-900
-104 c-2 -23 -8 -29 -35 -31 -32 -3 -33 -4 -33 -53 0 -46 2 -49 25 -49 34 0
37 -47 3 -52 -17 -2 -24 -11 -26 -31 -3 -25 -1 -27 22 -21 17 4 26 2 26 -6 0
-6 4 -8 10 -5 6 4 10 -5 10 -20 0 -25 -1 -26 -62 -23 l-62 3 -3 144 c-2 98 0
148 8 157 7 9 32 14 66 14 53 0 54 0 51 -27z m150 -45 c3 -63 1 -68 -18 -68
-17 0 -20 6 -20 45 0 33 -4 45 -15 45 -11 0 -15 -12 -15 -49 0 -48 1 -50 35
-61 l36 -12 -3 -71 c-3 -71 -3 -71 -36 -81 -22 -6 -41 -5 -57 2 -21 10 -25 18
-25 57 0 41 2 45 25 45 21 0 25 -5 25 -30 0 -16 5 -30 10 -30 6 0 10 16 10 35
0 30 -4 37 -35 49 l-35 15 0 69 c0 90 19 113 90 109 24 -2 25 -5 28 -69z m182
38 c0 -28 -4 -35 -22 -38 -23 -3 -23 -5 -20 -125 3 -129 0 -140 -44 -129 -24
6 -24 7 -24 131 0 118 -1 125 -20 125 -15 0 -20 7 -20 29 0 33 10 37 98 40
l52 1 0 -34z m1512 -11 c9 -50 9 -176 0 -235 -7 -44 -8 -45 -45 -48 -23 -2
-48 3 -63 13 -24 16 -25 17 -22 153 l3 137 35 12 c19 7 46 11 60 10 21 -2 26
-9 32 -42z m-1997 5 c0 -23 -3 -25 -37 -22 -37 3 -38 2 -38 -33 0 -32 2 -35
30 -35 25 0 30 -4 30 -25 0 -21 -5 -25 -30 -25 l-30 0 0 -75 c0 -68 -2 -75
-19 -75 -11 0 -23 6 -28 13 -4 6 -8 79 -8 160 l0 148 65 -3 c62 -3 65 -4 65
-28z m640 -87 c13 -198 13 -198 -12 -201 -17 -3 -22 2 -25 25 -4 40 -34 42
-41 3 -6 -30 -21 -37 -44 -22 -9 6 -10 38 -2 137 14 185 10 175 68 175 l48 0
8 -117z m661 81 c8 -46 -1 -200 -15 -236 -10 -26 -18 -31 -78 -43 l-33 -7 0
155 c0 174 -5 164 77 166 41 1 42 0 49 -35z m94 7 c0 -23 -5 -30 -25 -33 -23
-5 -25 -2 -25 28 0 30 3 34 25 34 21 0 25 -5 25 -29z m85 -73 c8 -104 22 -114
25 -18 3 69 13 95 39 98 l23 4 -6 -94 c-4 -51 -9 -119 -12 -150 l-6 -58 -48 0
c-38 0 -50 4 -54 18 -3 9 -8 77 -12 151 -5 108 -4 135 7 142 31 20 36 8 44
-93z m175 73 c0 -23 -5 -30 -25 -33 -30 -6 -35 -2 -35 34 0 24 4 28 30 28 26
0 30 -3 30 -29z m180 -125 c0 -151 0 -154 -22 -160 -28 -7 -43 7 -62 59 l-15
40 0 -42 c-1 -38 -4 -43 -25 -43 -24 0 -24 1 -31 134 -4 74 -4 139 -1 145 4 6
18 11 31 11 21 0 27 -7 36 -45 16 -65 29 -65 29 -1 0 56 0 56 30 56 l30 0 0
-154z m-814 3 c3 -35 1 -84 -3 -109 -8 -41 -11 -45 -38 -48 -54 -4 -60 7 -60
112 1 53 4 98 7 102 11 10 72 21 81 14 4 -3 10 -35 13 -71z m-130 45 c9 -37
-4 -167 -19 -181 -7 -6 -24 -15 -38 -18 -24 -6 -27 -3 -32 32 -4 21 -7 70 -7
110 0 77 3 81 57 82 27 1 34 -3 39 -25z m502 -96 l-3 -113 -27 -3 -28 -3 0
109 c0 60 3 112 7 115 3 4 17 7 30 7 24 0 24 0 21 -112z m257 8 c4 -58 4 -110
0 -115 -3 -6 -17 -11 -31 -11 l-24 0 0 115 c0 114 0 115 24 115 23 0 24 -3 31
-104z m313 -1208 c0 -552 -4 -983 -8 -958 -7 42 -7 40 -10 -30 l-3 -75 -7 65
-7 65 -3 -85 -4 -85 -6 75 -6 75 -4 -85 -4 -85 -6 75 -6 75 -4 -100 -4 -100
-3 88 c-2 48 -6 87 -9 87 -17 0 -34 -34 -36 -72 l-1 -43 -7 45 -7 45 -3 -50
-3 -50 -7 40 -7 40 -3 -55 -3 -55 -7 45 c-6 40 -7 35 -10 -40 l-4 -85 -6 75
-6 75 -4 -80 -4 -80 -6 70 -6 70 -4 -95 -4 -95 -3 83 c-2 45 -8 82 -13 82 -6
0 -10 -7 -10 -16 0 -8 -4 -12 -10 -9 -6 4 -10 -8 -11 -27 l-1 -33 -8 30 c-6
24 -8 18 -10 -35 l-3 -65 -8 55 c-5 39 -6 20 -4 -65 2 -88 1 -105 -5 -65 -4
30 -9 80 -11 110 -2 49 -3 46 -9 -30 l-6 -85 -4 75 -4 75 -6 -90 -6 -90 -4 85
-4 85 -6 -95 -6 -95 -4 80 -4 80 -6 -100 -6 -100 -2 95 c-2 81 -5 92 -16 78
-7 -10 -16 -15 -19 -11 -4 3 -8 -11 -8 -33 -1 -38 -2 -38 -9 -9 -6 24 -8 15
-10 -40 l-3 -70 -7 60 -7 60 -3 -80 -4 -80 -6 70 c-8 86 -11 77 -12 -40 l-2
-90 -5 80 -5 80 -6 -90 -6 -90 -2 88 c-1 48 -5 87 -9 87 -5 0 -8 -42 -7 -92 0
-90 0 -90 -3 -13 -5 97 -22 126 -25 39 l-1 -59 -7 50 c-7 49 -7 49 -10 -25
l-3 -75 -7 65 -7 65 -3 -90 -4 -90 -6 80 -6 80 -4 -105 -4 -105 -3 92 c-4 93
-22 131 -24 51 l-2 -43 -8 35 c-5 22 -6 -5 -4 -75 l3 -110 -12 105 -13 105 -3
-75 -3 -75 -7 65 -7 65 -3 -90 -4 -90 -6 75 -6 75 -4 -95 -4 -95 -3 83 c-2 45
-8 82 -13 82 -6 0 -10 -15 -11 -32 -1 -31 -1 -32 -9 -8 -7 21 -8 18 -10 -20
l-3 -45 -7 40 c-7 37 -7 36 -10 -25 l-3 -65 -7 55 c-6 53 -7 51 -10 -35 l-4
-90 -3 78 c-2 43 -8 75 -13 72 -4 -3 -7 -49 -5 -103 l4 -97 -8 88 c-4 48 -11
90 -14 94 -4 3 -8 -27 -9 -68 l-1 -74 -7 65 -7 65 -3 -70 -3 -70 -7 65 -7 65
-3 -90 -4 -90 -6 75 -6 75 -4 -65 -3 -65 -7 60 -7 60 -3 -80 -4 -80 -6 70 -6
70 -4 -60 -3 -60 -7 50 -7 50 -3 -60 -3 -60 -7 55 -7 55 -3 -45 c-3 -39 -4
-41 -7 -12 -8 63 -18 31 -17 -55 l1 -88 -6 70 -7 70 -5 -60 c-6 -56 -6 -55 -5
18 1 42 -2 77 -6 77 -5 0 -9 12 -10 28 0 15 -4 5 -8 -23 l-7 -50 -3 55 c-2 48
-3 51 -10 25 -8 -30 -8 -29 -10 10 -3 38 -4 37 -10 -15 l-7 -55 -3 65 c-2 57
-4 61 -10 30 l-7 -35 -3 45 -3 45 -7 -40 -7 -40 -2 48 c-2 79 -20 53 -24 -36
l-3 -82 -4 95 c-3 93 -4 94 -10 35 l-7 -60 -3 70 c-2 55 -4 64 -10 40 l-8 -30
-1 28 c-1 25 -20 57 -35 57 -3 0 -7 -37 -9 -82 l-3 -83 -4 100 -4 100 -6 -80
-6 -80 -4 85 c-3 83 -3 84 -10 30 l-7 -55 -3 65 c-2 57 -4 61 -10 30 l-7 -35
-2 43 c-2 76 -18 44 -20 -40 -3 -113 -11 -112 -13 3 l-2 94 -6 -90 -7 -90 -1
95 c-1 124 -4 133 -12 35 l-6 -80 -4 90 -3 90 -7 -65 -7 -65 -3 75 c-2 66 -4
70 -10 35 l-7 -40 -2 45 c-2 35 -4 41 -11 25 -8 -18 -9 -17 -9 7 -1 15 -5 29
-11 33 -5 3 -11 -26 -13 -72 l-3 -78 -4 85 -4 85 -6 -80 -6 -80 -4 90 -4 90
-6 -80 -6 -80 -4 90 c-2 73 -4 83 -10 50 l-7 -40 -3 50 c-2 45 -3 47 -10 20
l-8 -30 -1 32 c0 17 -5 34 -11 38 -5 3 -11 -29 -13 -82 l-3 -88 -4 100 -4 100
-6 -90 -6 -90 -4 100 -4 100 -6 -80 -6 -80 -4 85 -3 85 -7 -65 -7 -65 -3 75
-4 75 -6 -70 -6 -70 -4 80 c-3 77 -3 78 -10 30 l-7 -50 -1 59 c-1 33 -4 57 -7
54 -3 -3 -10 -50 -15 -104 l-9 -99 4 110 c2 64 0 100 -5 85 -8 -24 -8 -23 -9
8 -1 17 -5 32 -11 32 -6 0 -10 -35 -11 -82 0 -46 -4 -91 -7 -101 -4 -9 -7 31
-6 90 1 106 1 106 -6 28 l-6 -80 -4 95 -4 95 -6 -70 -6 -70 -4 80 c-3 73 -4
76 -10 35 l-7 -45 -3 55 -3 55 -7 -50 -7 -50 -1 58 c-1 36 -6 56 -12 52 -6 -3
-10 -1 -10 4 0 6 -4 11 -10 11 -5 0 -11 -39 -13 -88 l-3 -87 0 98 c1 53 -2 97
-6 97 -4 0 -9 -42 -11 -93 l-3 -92 -4 105 -4 105 -6 -80 -6 -80 -4 90 -4 90
-6 -75 -6 -75 -4 85 c-3 83 -3 84 -10 30 l-7 -55 -3 65 -3 65 -7 -55 -7 -55
-3 65 c-2 57 -4 61 -10 30 l-7 -35 -2 38 c0 20 -5 37 -11 37 -5 0 -11 -42 -12
-92 -2 -51 -5 380 -6 958 -1 578 1 1054 5 1057 3 4 474 7 1045 7 l1038 0 -2
-1002z m9 -1105 c-2 -16 -4 -3 -4 27 0 30 2 43 4 28 2 -16 2 -40 0 -55z
m-2070 -10 c-2 -16 -4 -3 -4 27 0 30 2 43 4 28 2 -16 2 -40 0 -55z m1960 -50
c-2 -21 -4 -4 -4 37 0 41 2 58 4 38 2 -21 2 -55 0 -75z m-1940 30 c-2 -16 -4
-5 -4 22 0 28 2 40 4 28 2 -13 2 -35 0 -50z m2030 5 c-2 -13 -4 -5 -4 17 -1
22 1 32 4 23 2 -10 2 -28 0 -40z m-1900 -80 c-2 -24 -4 -7 -4 37 0 44 2 63 4
43 2 -21 2 -57 0 -80z m-110 50 c-2 -13 -4 -5 -4 17 -1 22 1 32 4 23 2 -10 2
-28 0 -40z m1990 5 c-3 -10 -5 -2 -5 17 0 19 2 27 5 18 2 -10 2 -26 0 -35z
m-90 -50 c-2 -16 -4 -5 -4 22 0 28 2 40 4 28 2 -13 2 -35 0 -50z m70 30 c-3
-10 -5 -4 -5 12 0 17 2 24 5 18 2 -7 2 -21 0 -30z m-1950 -15 c-3 -7 -5 -2 -5
12 0 14 2 19 5 13 2 -7 2 -19 0 -25z m1860 -35 c-2 -16 -4 -5 -4 22 0 28 2 40
4 28 2 -13 2 -35 0 -50z m-1840 5 c-3 -7 -5 -2 -5 12 0 14 2 19 5 13 2 -7 2
-19 0 -25z m1730 -75 c-2 -21 -4 -4 -4 37 0 41 2 58 4 38 2 -21 2 -55 0 -75z
m90 45 c-2 -13 -4 -3 -4 22 0 25 2 35 4 23 2 -13 2 -33 0 -45z m-1730 -20 c-2
-13 -4 -5 -4 17 -1 22 1 32 4 23 2 -10 2 -28 0 -40z m20 -20 c-2 -13 -4 -3 -4
22 0 25 2 35 4 23 2 -13 2 -33 0 -45z m1600 -30 c-2 -18 -4 -4 -4 32 0 36 2
50 4 33 2 -18 2 -48 0 -65z m-1510 -20 c-2 -18 -4 -4 -4 32 0 36 2 50 4 33 2
-18 2 -48 0 -65z m1600 55 c-3 -10 -5 -4 -5 12 0 17 2 24 5 18 2 -7 2 -21 0
-30z m-20 -20 c-3 -10 -5 -2 -5 17 0 19 2 27 5 18 2 -10 2 -26 0 -35z m-1650
-20 c-3 -10 -5 -2 -5 17 0 19 2 27 5 18 2 -10 2 -26 0 -35z m1630 -5 c-3 -7
-5 -2 -5 12 0 14 2 19 5 13 2 -7 2 -19 0 -25z m-200 -110 c-2 -24 -4 -5 -4 42
0 47 2 66 4 43 2 -24 2 -62 0 -85z m130 70 c-2 -13 -4 -5 -4 17 -1 22 1 32 4
23 2 -10 2 -28 0 -40z m-1450 -30 c-2 -13 -4 -5 -4 17 -1 22 1 32 4 23 2 -10
2 -28 0 -40z m20 -25 c-3 -10 -5 -2 -5 17 0 19 2 27 5 18 2 -10 2 -26 0 -35z
m1390 5 c-3 -7 -5 -2 -5 12 0 14 2 19 5 13 2 -7 2 -19 0 -25z m-1370 -25 c-3
-10 -5 -4 -5 12 0 17 2 24 5 18 2 -7 2 -21 0 -30z m1350 15 c-3 -8 -6 -5 -6 6
-1 11 2 17 5 13 3 -3 4 -12 1 -19z m-90 -50 c-2 -13 -4 -3 -4 22 0 25 2 35 4
23 2 -13 2 -33 0 -45z m-1170 -15 c-2 -16 -4 -5 -4 22 0 28 2 40 4 28 2 -13 2
-35 0 -50z m1240 45 c-3 -8 -6 -5 -6 6 -1 11 2 17 5 13 3 -3 4 -12 1 -19z
m-1310 -20 c-3 -7 -5 -2 -5 12 0 14 2 19 5 13 2 -7 2 -19 0 -25z m90 -50 c-2
-13 -4 -3 -4 22 0 25 2 35 4 23 2 -13 2 -33 0 -45z m-70 30 c-3 -8 -6 -5 -6 6
-1 11 2 17 5 13 3 -3 4 -12 1 -19z m1200 -25 c-3 -10 -5 -2 -5 17 0 19 2 27 5
18 2 -10 2 -26 0 -35z m-1040 -65 c-2 -18 -4 -4 -4 32 0 36 2 50 4 33 2 -18 2
-48 0 -65z m1020 45 c-3 -10 -5 -4 -5 12 0 17 2 24 5 18 2 -7 2 -21 0 -30z
m-1090 -25 c-3 -8 -6 -5 -6 6 -1 11 2 17 5 13 3 -3 4 -12 1 -19z m90 -45 c-2
-16 -4 -5 -4 22 0 28 2 40 4 28 2 -13 2 -35 0 -50z m-70 25 c-3 -7 -5 -2 -5
12 0 14 2 19 5 13 2 -7 2 -19 0 -25z m980 -30 c-2 -13 -4 -3 -4 22 0 25 2 35
4 23 2 -13 2 -33 0 -45z m-960 15 c-3 -10 -5 -4 -5 12 0 17 2 24 5 18 2 -7 2
-21 0 -30z m940 -30 c-3 -10 -5 -2 -5 17 0 19 2 27 5 18 2 -10 2 -26 0 -35z
m-70 -40 c-2 -16 -4 -5 -4 22 0 28 2 40 4 28 2 -13 2 -35 0 -50z m-800 20 c-3
-10 -5 -4 -5 12 0 17 2 24 5 18 2 -7 2 -21 0 -30z m850 -5 c-3 -8 -6 -5 -6 6
-1 11 2 17 5 13 3 -3 4 -12 1 -19z m-760 -55 c-2 -16 -4 -5 -4 22 0 28 2 40 4
28 2 -13 2 -35 0 -50z m-70 25 c-3 -7 -5 -2 -5 12 0 14 2 19 5 13 2 -7 2 -19
0 -25z m160 -75 c-2 -21 -4 -4 -4 37 0 41 2 58 4 38 2 -21 2 -55 0 -75z m510
10 c-2 -21 -4 -6 -4 32 0 39 2 55 4 38 2 -18 2 -50 0 -70z m-580 15 c-2 -13
-4 -5 -4 17 -1 22 1 32 4 23 2 -10 2 -28 0 -40z m650 5 c-3 -10 -5 -2 -5 17 0
19 2 27 5 18 2 -10 2 -26 0 -35z m-560 -55 c-2 -18 -4 -4 -4 32 0 36 2 50 4
33 2 -18 2 -48 0 -65z m540 35 c-3 -10 -5 -4 -5 12 0 17 2 24 5 18 2 -7 2 -21
0 -30z m-70 -35 c-2 -13 -4 -3 -4 22 0 25 2 35 4 23 2 -13 2 -33 0 -45z m-540
15 c-3 -10 -5 -4 -5 12 0 17 2 24 5 18 2 -7 2 -21 0 -30z m590 -5 c-3 -8 -6
-5 -6 6 -1 11 2 17 5 13 3 -3 4 -12 1 -19z m-70 -40 c-2 -13 -4 -5 -4 17 -1
22 1 32 4 23 2 -10 2 -28 0 -40z m-430 -20 c-2 -13 -4 -5 -4 17 -1 22 1 32 4
23 2 -10 2 -28 0 -40z m50 -25 c-2 -16 -4 -5 -4 22 0 28 2 40 4 28 2 -13 2
-35 0 -50z m20 -20 c-2 -16 -4 -5 -4 22 0 28 2 40 4 28 2 -13 2 -35 0 -50z
m340 35 c-3 -7 -5 -2 -5 12 0 14 2 19 5 13 2 -7 2 -19 0 -25z m-50 -35 c-3
-10 -5 -2 -5 17 0 19 2 27 5 18 2 -10 2 -26 0 -35z m-270 -35 c-2 -13 -4 -3
-4 22 0 25 2 35 4 23 2 -13 2 -33 0 -45z m20 0 c-2 -13 -4 -3 -4 22 0 25 2 35
4 23 2 -13 2 -33 0 -45z m230 15 c-3 -10 -5 -2 -5 17 0 19 2 27 5 18 2 -10 2
-26 0 -35z m-210 -30 c-2 -16 -4 -5 -4 22 0 28 2 40 4 28 2 -13 2 -35 0 -50z
m20 -15 c-2 -18 -4 -6 -4 27 0 33 2 48 4 33 2 -15 2 -42 0 -60z m150 10 c-2
-13 -4 -5 -4 17 -1 22 1 32 4 23 2 -10 2 -28 0 -40z m20 15 c-3 -10 -5 -4 -5
12 0 17 2 24 5 18 2 -7 2 -21 0 -30z m-40 -35 c-2 -13 -4 -5 -4 17 -1 22 1 32
4 23 2 -10 2 -28 0 -40z m-60 -20 c-2 -13 -4 -3 -4 22 0 25 2 35 4 23 2 -13 2
-33 0 -45z m20 0 c-2 -13 -4 -3 -4 22 0 25 2 35 4 23 2 -13 2 -33 0 -45z m20
10 c-2 -13 -4 -5 -4 17 -1 22 1 32 4 23 2 -10 2 -28 0 -40z"/>
<path d="M2167 3340 c-8 -73 2 -156 14 -125 10 27 11 157 0 173 -5 8 -10 -9
-14 -48z"/>
<path d="M821 3303 c-1 -24 4 -43 9 -43 12 0 12 24 0 60 -7 21 -8 19 -9 -17z"/>
<path d="M1470 3328 c1 -110 17 -102 22 11 2 53 -1 75 -9 78 -10 4 -13 -18
-13 -89z"/>
<path d="M1213 3270 c0 -41 2 -58 4 -37 2 20 2 54 0 75 -2 20 -4 3 -4 -38z"/>
<path d="M1088 3354 c-5 -4 -8 -35 -8 -68 1 -46 3 -57 11 -43 11 19 8 123 -3
111z"/>
<path d="M410 3000 l-22 -44 -19 37 c-11 20 -23 37 -27 37 -5 0 -16 -17 -26
-37 l-18 -38 -21 40 -22 40 -5 -50 -5 -50 -40 -3 -40 -4 34 -18 35 -18 -44
-22 -44 -22 44 -23 45 -23 -38 -18 c-20 -10 -37 -21 -37 -26 0 -4 17 -16 37
-27 l37 -19 -44 -22 -44 -22 44 -23 45 -23 -38 -18 c-20 -10 -37 -20 -37 -23
0 -3 17 -16 37 -27 l38 -22 -38 -15 c-20 -9 -37 -21 -37 -26 0 -6 17 -19 37
-30 l38 -19 -38 -18 c-20 -10 -37 -21 -37 -24 0 -3 17 -14 37 -24 l38 -18 -45
-23 -44 -22 44 -23 44 -22 -37 -19 c-20 -11 -37 -22 -37 -24 0 -2 17 -13 37
-24 l37 -19 -44 -22 -44 -22 44 -23 45 -23 -38 -18 c-20 -10 -37 -21 -37 -26
0 -4 17 -16 37 -27 l37 -19 -44 -22 -44 -22 44 -23 45 -23 -38 -18 c-20 -10
-37 -21 -37 -26 0 -4 16 -14 35 -22 19 -8 35 -18 35 -21 0 -3 -16 -13 -35 -21
-19 -8 -35 -19 -35 -24 0 -5 17 -18 37 -29 l38 -19 -38 -18 c-20 -10 -37 -21
-37 -24 0 -3 17 -14 37 -24 l38 -18 -45 -23 -44 -23 44 -22 44 -22 -44 -23
-44 -23 44 -22 44 -22 -37 -19 c-35 -18 -49 -39 -27 -39 6 0 22 -8 36 -17 l26
-17 -43 -22 -43 -22 44 -22 44 -23 -53 -26 -53 -27 55 -13 55 -12 -9 -37 c-14
-61 -13 -63 26 -46 47 19 46 19 39 -26 -4 -22 -4 -40 -1 -40 2 0 21 7 42 16
l37 15 -6 -28 c-4 -15 -9 -36 -12 -45 -7 -22 3 -22 51 -3 35 15 36 15 31 -2
-13 -45 -18 -73 -12 -73 4 0 23 7 43 15 19 8 37 15 38 15 2 0 -1 -17 -6 -37
-12 -54 -13 -53 27 -37 20 8 38 13 40 11 3 -2 1 -23 -5 -46 -10 -45 -8 -47 29
-26 42 24 52 19 44 -21 -7 -38 -6 -39 54 -17 15 6 15 -2 2 -46 -5 -19 -8 -36
-6 -38 1 -2 20 4 41 12 20 9 39 14 41 12 2 -2 -1 -18 -6 -37 -12 -41 -7 -47
25 -32 42 19 47 15 40 -28 -8 -45 -7 -45 41 -25 l35 14 -7 -44 c-7 -50 -7 -51
41 -31 39 17 41 13 26 -42 -11 -36 -7 -38 43 -17 40 17 40 15 26 -34 -5 -19
-8 -36 -6 -38 2 -2 20 4 40 13 43 21 49 17 35 -24 -18 -53 -5 -56 29 -8 30 42
51 58 52 39 1 -5 16 -26 35 -48 l34 -40 -11 43 c-6 23 -8 45 -6 47 3 3 21 -2
41 -10 40 -17 40 -17 28 38 -5 20 -8 37 -6 37 1 0 19 -7 40 -16 20 -8 39 -14
41 -12 2 2 -1 21 -7 42 -6 21 -8 40 -6 43 3 2 19 -3 36 -11 39 -21 54 -20 47
2 -3 9 -8 30 -12 45 l-6 28 37 -15 c52 -22 55 -21 43 20 -12 44 -7 49 33 35
41 -14 45 -9 32 34 -13 40 -10 41 41 20 40 -17 43 -13 27 43 -10 35 -5 38 34
20 32 -14 37 -9 26 30 -11 37 -4 39 40 16 17 -8 33 -13 36 -11 2 3 0 22 -6 43
-6 21 -9 40 -7 42 2 2 21 -4 41 -12 l37 -16 -7 45 -6 46 37 -16 c20 -8 39 -13
42 -10 2 2 0 22 -6 45 -5 22 -9 40 -7 40 1 0 19 -7 38 -15 50 -21 50 -20 42
26 -7 39 -6 42 14 35 11 -3 31 -9 42 -12 19 -6 20 -4 14 17 -3 13 -9 32 -11
42 -7 21 8 22 47 1 17 -8 32 -14 34 -12 2 2 -1 23 -7 47 -12 47 -4 60 37 62
11 0 29 4 40 8 17 7 14 11 -27 32 -27 13 -48 26 -48 29 0 4 16 14 36 23 39 19
38 29 -6 47 -16 7 -30 16 -30 19 0 4 17 15 37 25 l38 18 -38 19 c-20 11 -37
21 -37 23 0 3 16 14 36 27 l37 22 -37 19 c-20 10 -36 22 -36 26 0 5 17 16 37
26 l38 18 -38 19 c-20 11 -37 23 -37 27 0 5 17 16 37 26 l38 18 -43 22 -44 22
41 19 c23 10 41 21 41 25 0 3 -16 14 -36 23 -39 19 -38 29 6 47 16 7 30 16 30
19 0 4 -16 15 -36 24 -39 19 -38 29 6 47 16 7 30 16 30 20 0 4 -18 15 -41 25
l-41 19 44 22 43 22 -38 18 c-20 10 -37 21 -37 24 0 3 16 14 36 23 39 19 38
29 -6 47 -16 7 -30 16 -30 19 0 4 17 15 37 25 l38 18 -45 23 -45 24 42 18 c24
10 43 21 43 24 0 3 -18 14 -40 24 l-40 18 41 25 42 25 -37 19 c-41 21 -40 30
4 48 38 16 38 24 0 40 -44 18 -45 27 -3 49 l38 19 -38 22 c-41 25 -41 32 3 50
38 16 38 24 0 40 -44 18 -45 27 -3 49 l38 19 -38 18 c-20 10 -37 21 -37 24 0
3 16 14 36 23 39 19 38 29 -6 47 -37 15 -38 23 -2 40 l27 14 -40 5 c-39 6 -40
7 -43 51 l-4 45 -18 -35 -18 -35 -18 38 c-10 20 -21 37 -24 37 -3 0 -14 -17
-24 -37 l-18 -38 -23 45 -22 44 -23 -44 -22 -44 -20 39 -20 39 -19 -25 c-10
-13 -19 -27 -19 -31 0 -19 -18 -5 -33 28 -19 39 -29 38 -47 -6 -15 -36 -27
-38 -40 -6 -15 39 -28 39 -48 -1 l-20 -37 -22 44 -22 44 -23 -44 -22 -44 -18
34 c-17 32 -18 33 -31 15 -8 -10 -14 -22 -14 -27 0 -17 -17 -7 -30 17 -14 27
-30 33 -30 12 0 -7 -6 -21 -13 -31 -12 -16 -14 -15 -27 11 -29 57 -32 57 -55
13 l-22 -42 -17 36 c-9 20 -20 36 -25 36 -4 0 -15 -17 -25 -37 l-18 -38 -23
45 -22 44 -23 -44 -22 -44 -23 44 -22 44 -23 -44 -22 -44 -23 44 -22 44 -23
-44 -22 -44 -19 37 c-11 20 -22 37 -24 37 -2 0 -13 -17 -24 -37 l-19 -37 -21
43 c-13 24 -24 41 -26 39 -1 -1 -12 -21 -23 -42 l-21 -39 -17 37 c-10 20 -21
36 -26 36 -4 0 -16 -16 -26 -35 l-18 -36 -23 42 -24 42 -22 -44 -23 -44 -18
38 c-10 20 -21 37 -24 37 -3 0 -14 -17 -24 -37 l-18 -38 -23 45 -22 44 -23
-44z m318 -604 c57 -106 122 -196 194 -272 43 -45 50 -57 59 -115 10 -66 28
-102 63 -130 29 -23 37 -7 29 58 -5 48 -4 54 25 82 63 63 142 27 142 -64 0
-33 9 -56 35 -95 19 -29 35 -59 35 -68 0 -13 3 -12 15 5 l15 22 51 -35 c28
-19 57 -34 65 -34 8 0 14 -4 14 -9 0 -41 -48 -71 -114 -71 -36 0 -46 -4 -51
-20 -4 -11 -17 -28 -30 -36 -17 -11 -21 -19 -15 -27 9 -11 79 -113 105 -154 6
-9 27 -32 48 -51 20 -19 37 -39 37 -44 0 -6 -15 -24 -32 -41 -22 -20 -26 -26
-11 -18 12 6 28 20 36 32 13 18 18 19 36 7 28 -17 27 -29 -10 -66 -31 -32 -76
-47 -120 -40 -29 4 -38 34 -12 41 14 4 13 5 -5 6 -27 1 -41 30 -80 169 -15 53
-28 89 -30 81 -1 -8 6 -45 17 -84 11 -38 18 -71 16 -73 -2 -2 -22 -8 -45 -13
-55 -13 -123 5 -116 29 3 9 8 29 12 45 3 15 9 27 13 27 3 0 7 18 8 41 2 24 -1
38 -7 34 -6 -4 -8 -10 -5 -15 6 -10 -33 -137 -73 -235 -29 -69 -29 -70 -70
-73 -54 -4 -99 20 -120 65 l-17 35 30 24 30 23 25 -24 c14 -14 30 -25 34 -25
4 0 -6 12 -24 26 l-31 26 50 53 c28 29 68 81 90 116 22 35 45 69 49 75 6 6 -2
21 -19 39 -16 15 -29 33 -29 39 0 7 -18 10 -48 8 -41 -3 -54 1 -80 23 -41 34
-40 48 3 64 19 7 48 23 63 36 31 26 52 19 52 -19 0 -25 5 -18 14 17 4 18 3 26
-3 23 -5 -4 -21 8 -36 26 -17 22 -23 25 -15 10 14 -29 2 -45 -54 -74 -43 -22
-105 -25 -150 -8 -44 16 -77 119 -38 121 9 0 -1 7 -23 15 -21 8 -43 20 -47 27
-4 6 -8 9 -8 4 0 -15 -79 33 -92 56 -11 21 -15 153 -4 164 3 3 28 -13 55 -36
35 -29 48 -47 45 -59 -5 -13 -4 -14 4 -4 7 11 27 4 94 -32 47 -25 91 -46 99
-46 8 1 -15 14 -50 30 -68 32 -163 97 -223 154 -34 31 -38 40 -38 86 0 30 8
68 21 95 12 25 22 45 24 45 1 0 16 -23 34 -51 27 -43 30 -54 19 -68 -11 -14
-11 -14 3 -4 12 10 18 10 29 0 7 -6 -1 8 -17 33 -59 89 -65 106 -48 140 12 23
37 47 52 50 0 0 24 -42 51 -94z m987 62 c39 -46 26 -80 -78 -215 -26 -35 -45
-63 -43 -63 3 0 23 22 44 49 35 44 41 48 56 35 9 -8 11 -9 6 -2 -16 19 -12 34
19 84 l30 46 20 -40 c11 -21 23 -62 27 -90 6 -49 5 -52 -32 -90 -22 -22 -68
-61 -104 -87 -77 -56 -88 -67 -38 -36 21 12 42 20 48 16 5 -3 10 -1 10 6 0 11
79 88 92 89 12 0 20 -86 13 -130 -6 -33 -15 -47 -48 -71 l-42 -31 -6 64 -5 63
-5 -65 -4 -65 -45 -17 c-25 -9 -37 -17 -27 -17 26 -1 23 -63 -6 -97 -26 -30
-93 -45 -141 -33 -46 13 -108 60 -101 78 3 9 -3 5 -14 -9 -11 -14 -21 -23 -23
-20 -2 3 -11 16 -20 30 -15 24 -14 26 9 44 31 23 59 85 68 148 6 38 15 55 45
82 21 19 62 65 90 103 29 37 55 70 59 73 3 3 29 49 56 102 28 54 53 98 57 98
3 0 18 -14 33 -32z m-530 -1130 c22 1 48 3 59 5 14 1 25 -13 47 -68 16 -38 29
-71 29 -72 0 -9 -121 -43 -156 -43 -48 0 -124 32 -124 53 0 6 10 40 22 75 23
61 23 62 53 55 16 -4 48 -7 70 -5z"/>
<path d="M630 2230 c-6 -11 -8 -20 -6 -20 3 0 10 9 16 20 6 11 8 20 6 20 -3 0
-10 -9 -16 -20z"/>
<path d="M715 2230 c10 -11 20 -20 23 -20 3 0 -3 9 -13 20 -10 11 -20 20 -23
20 -3 0 3 -9 13 -20z"/>
<path d="M760 2175 c13 -14 26 -25 28 -25 3 0 -5 11 -18 25 -13 14 -26 25 -28
25 -3 0 5 -11 18 -25z"/>
<path d="M800 2136 c0 -2 8 -10 18 -17 15 -13 16 -12 3 4 -13 16 -21 21 -21
13z"/>
<path d="M840 2106 c0 -2 8 -10 18 -17 15 -13 16 -12 3 4 -13 16 -21 21 -21
13z"/>
<path d="M663 2000 c0 -25 2 -35 4 -22 2 12 2 32 0 45 -2 12 -4 2 -4 -23z"/>
<path d="M952 1980 c0 -19 2 -27 5 -17 2 9 2 25 0 35 -3 9 -5 1 -5 -18z"/>
<path d="M908 1973 c7 -3 16 -2 19 1 4 3 -2 6 -13 5 -11 0 -14 -3 -6 -6z"/>
<path d="M1160 1950 c-9 -6 -10 -10 -3 -10 6 0 15 5 18 10 8 12 4 12 -15 0z"/>
<path d="M960 1916 c0 -8 4 -17 9 -20 5 -4 7 3 4 14 -6 23 -13 26 -13 6z"/>
<path d="M778 1883 c7 -3 16 -2 19 1 4 3 -2 6 -13 5 -11 0 -14 -3 -6 -6z"/>
<path d="M888 1883 c6 -2 18 -2 25 0 6 3 1 5 -13 5 -14 0 -19 -2 -12 -5z"/>
<path d="M1323 1720 c0 -25 2 -35 4 -22 2 12 2 32 0 45 -2 12 -4 2 -4 -23z"/>
<path d="M1365 1739 c-16 -10 -25 -19 -19 -19 7 0 22 9 35 20 30 24 23 24 -16
-1z"/>
<path d="M987 1729 c7 -7 15 -10 18 -7 3 3 -2 9 -12 12 -14 6 -15 5 -6 -5z"/>
<path d="M1129 1560 c4 -18 6 -20 9 -7 2 12 13 17 37 17 24 0 35 -5 38 -17 4
-14 5 -13 6 4 0 12 6 23 11 25 6 2 -16 3 -48 3 -57 0 -58 -1 -53 -25z"/>
<path d="M1158 1433 c12 -2 32 -2 45 0 12 2 2 4 -23 4 -25 0 -35 -2 -22 -4z"/>
<path d="M1534 2128 l-29 -33 33 29 c17 17 32 31 32 33 0 8 -8 1 -36 -29z"/>
<path d="M1390 1975 c0 -27 3 -46 6 -42 3 3 6 22 6 42 0 20 -3 39 -6 42 -3 4
-6 -15 -6 -42z"/>
<path d="M1495 1995 c-18 -8 -23 -14 -13 -15 11 0 18 -11 21 -32 4 -33 4 -33
5 4 1 23 8 41 20 47 25 15 2 12 -33 -4z"/>
<path d="M1428 1973 c7 -3 16 -2 19 1 4 3 -2 6 -13 5 -11 0 -14 -3 -6 -6z"/>
<path d="M1380 1911 c0 -9 30 -24 36 -18 2 1 -6 8 -16 15 -11 7 -20 8 -20 3z"/>
<path d="M1366 1873 c-6 -14 -5 -15 5 -6 7 7 10 15 7 18 -3 3 -9 -2 -12 -12z"/>
<path d="M1438 1883 c6 -2 18 -2 25 0 6 3 1 5 -13 5 -14 0 -19 -2 -12 -5z"/>
<path d="M1548 1883 c6 -2 18 -2 25 0 6 3 1 5 -13 5 -14 0 -19 -2 -12 -5z"/>
<path d="M1511 1814 c0 -11 3 -14 6 -6 3 7 2 16 -1 19 -3 4 -6 -2 -5 -13z"/>
</g>
</svg>
